<svg width="488" height="126" viewBox="0 0 488 126" fill="none" xmlns="http://www.w3.org/2000/svg">
<path d="M79.5 95.1C79.5 97 78.85 98.65 77.55 100.05C76.25 101.35 74.6 102 72.6 102H68.55C66.65 102 65 101.35 63.6 100.05C62.3 98.65 61.65 97 61.65 95.1V49.95C61.65 49.55 61.45 49.3 61.05 49.2C60.75 49.1 60.5 49.2 60.3 49.5L45.9 79.2C45.6 80 44.95 80.7 43.95 81.3C42.95 81.9 42 82.4 41.1 82.8C40.3 83.1 39.9 83.25 39.9 83.25C36.8 83.25 34.75 81.9 33.75 79.2L19.35 49.5C19.25 49.2 19 49.1 18.6 49.2C18.2 49.3 18 49.55 18 49.95V95.1C18 97 17.3 98.65 15.9 100.05C14.6 101.35 13 102 11.1 102H6.9C5 102 3.35 101.35 1.95 100.05C0.65 98.65 4.24683e-07 97 4.24683e-07 95.1V7.49999C4.24683e-07 5.49999 0.65 3.84999 1.95 2.54999C3.35 1.24999 5 0.599991 6.9 0.599991H11.25C14.05 0.599991 16.1 1.89999 17.4 4.49999C17.9 5.59999 18.9 7.74999 20.4 10.95C22 14.05 23.85 17.75 25.95 22.05C28.05 26.35 30.2 30.9 32.4 35.7C34.7 40.4 36.9 44.9 39 49.2C39.2 49.6 39.45 49.8 39.75 49.8C40.15 49.8 40.45 49.6 40.65 49.2L62.1 4.49999C63.4 1.89999 65.5 0.599991 68.4 0.599991H72.6C74.6 0.599991 76.25 1.24999 77.55 2.54999C78.85 3.84999 79.5 5.49999 79.5 7.49999V95.1ZM141.949 33L121.399 111.9C120.299 116 118.049 119.35 114.649 121.95C111.249 124.65 107.349 126 102.949 126H98.7492C96.8492 126 95.1992 125.3 93.7992 123.9C92.4992 122.6 91.8492 121 91.8492 119.1V114.9C91.8492 113 92.4992 111.4 93.7992 110.1C95.1992 108.8 96.8492 108.15 98.7492 108.15H102.949C103.549 108.15 103.949 107.85 104.149 107.25L107.449 94.35C107.749 93.55 107.749 92.7 107.449 91.8L92.1492 33C91.3492 30.7 91.7492 28.75 93.3492 27.15C94.6492 25.25 96.3992 24.3 98.5992 24.3H102.949C104.549 24.3 105.949 24.8 107.149 25.8C108.349 26.7 109.149 27.95 109.549 29.55L116.299 55.2C116.399 55.6 116.649 55.8 117.049 55.8C117.449 55.8 117.699 55.6 117.799 55.2L124.549 29.55C125.049 27.95 125.849 26.7 126.949 25.8C128.149 24.8 129.499 24.3 130.999 24.3H135.349C137.649 24.3 139.449 25.25 140.749 27.15C142.249 28.75 142.649 30.7 141.949 33ZM220.998 82.2C220.998 85.8 220.098 89.1 218.298 92.1C216.498 95.1 214.098 97.5 211.098 99.3C208.098 101.1 204.798 102 201.198 102H161.148C159.248 102 157.598 101.35 156.198 100.05C154.898 98.65 154.248 97 154.248 95.1V7.49999C154.248 5.49999 154.898 3.84999 156.198 2.54999C157.598 1.24999 159.248 0.599991 161.148 0.599991H199.098C202.798 0.599991 206.098 1.49999 208.998 3.29999C211.998 5.09999 214.398 7.49999 216.198 10.5C217.998 13.5 218.898 16.85 218.898 20.55V38.4C218.898 41.1 218.398 43.6 217.398 45.9C216.898 47 216.998 48.1 217.698 49.2C219.898 52.5 220.998 56.2 220.998 60.3V82.2ZM201.198 38.4V20.55C201.198 19.95 200.948 19.45 200.448 19.05C200.048 18.65 199.598 18.45 199.098 18.45H174.198C172.898 18.45 172.248 19.1 172.248 20.4V38.4C172.248 39.7 172.898 40.35 174.198 40.35H199.098C199.598 40.35 200.048 40.15 200.448 39.75C200.948 39.35 201.198 38.9 201.198 38.4ZM203.148 82.2V60.3C203.148 58.9 202.498 58.2 201.198 58.2H174.198C172.898 58.2 172.248 58.85 172.248 60.15V82.35C172.248 83.65 172.898 84.3 174.198 84.3H201.198C201.698 84.3 202.148 84.1 202.548 83.7C202.948 83.2 203.148 82.7 203.148 82.2ZM287.503 85.2C287.503 89.9 285.853 93.9 282.553 97.2C279.353 100.4 275.453 102 270.853 102H250.003C245.403 102 241.453 100.4 238.153 97.2C234.853 93.9 233.203 89.9 233.203 85.2V41.1C233.203 38 233.953 35.2 235.453 32.7C237.053 30.1 239.103 28.05 241.603 26.55C244.103 25.05 246.903 24.3 250.003 24.3H270.853C273.953 24.3 276.753 25.05 279.253 26.55C281.753 28.05 283.753 30.1 285.253 32.7C286.753 35.2 287.503 38 287.503 41.1V85.2ZM269.803 82.35V44.25C269.803 43.65 269.553 43.15 269.053 42.75C268.653 42.35 268.203 42.15 267.703 42.15H253.153C252.653 42.15 252.153 42.35 251.653 42.75C251.253 43.15 251.053 43.65 251.053 44.25V82.35C251.053 82.85 251.253 83.3 251.653 83.7C252.153 84.1 252.653 84.3 253.153 84.3H267.703C268.203 84.3 268.653 84.1 269.053 83.7C269.553 83.3 269.803 82.85 269.803 82.35ZM354.007 85.2C354.007 89.9 352.357 93.9 349.057 97.2C345.857 100.4 341.957 102 337.357 102H316.507C311.907 102 307.957 100.4 304.657 97.2C301.357 93.9 299.707 89.9 299.707 85.2V41.1C299.707 38 300.457 35.2 301.957 32.7C303.557 30.1 305.607 28.05 308.107 26.55C310.607 25.05 313.407 24.3 316.507 24.3H337.357C340.457 24.3 343.257 25.05 345.757 26.55C348.257 28.05 350.257 30.1 351.757 32.7C353.257 35.2 354.007 38 354.007 41.1V85.2ZM336.307 82.35V44.25C336.307 43.65 336.057 43.15 335.557 42.75C335.157 42.35 334.707 42.15 334.207 42.15H319.657C319.157 42.15 318.657 42.35 318.157 42.75C317.757 43.15 317.557 43.65 317.557 44.25V82.35C317.557 82.85 317.757 83.3 318.157 83.7C318.657 84.1 319.157 84.3 319.657 84.3H334.207C334.707 84.3 335.157 84.1 335.557 83.7C336.057 83.3 336.307 82.85 336.307 82.35ZM419.911 97.8C418.811 100.6 416.761 102 413.761 102H408.211C406.211 102 404.461 101.25 402.961 99.75L385.411 80.4C385.311 80.2 385.061 80.15 384.661 80.25C384.361 80.35 384.211 80.6 384.211 81V95.1C384.211 97 383.511 98.65 382.111 100.05C380.811 101.35 379.211 102 377.311 102H373.111C371.211 102 369.561 101.35 368.161 100.05C366.861 98.65 366.211 97 366.211 95.1V7.49999C366.211 5.49999 366.861 3.84999 368.161 2.54999C369.561 1.24999 371.211 0.599991 373.111 0.599991H377.311C379.211 0.599991 380.811 1.24999 382.111 2.54999C383.511 3.84999 384.211 5.49999 384.211 7.49999V45.45C384.211 45.75 384.361 46 384.661 46.2C385.061 46.3 385.311 46.2 385.411 45.9L401.311 28.65C402.611 27.15 404.261 26.4 406.261 26.4H411.811C414.711 26.4 416.811 27.8 418.111 30.6C418.611 31.8 418.761 33.1 418.561 34.5C418.361 35.8 417.811 36.9 416.911 37.8L395.161 61.8C394.761 62.2 394.561 62.7 394.561 63.3C394.561 63.8 394.761 64.2 395.161 64.5L418.711 90.45C419.611 91.45 420.161 92.65 420.361 94.05C420.661 95.35 420.511 96.6 419.911 97.8ZM487.015 85.2C487.015 89.9 485.365 93.9 482.065 97.2C478.865 100.4 474.965 102 470.365 102H449.515C444.915 102 440.965 100.4 437.665 97.2C434.365 93.9 432.715 89.9 432.715 85.2V79.05C432.715 77.15 433.365 75.55 434.665 74.25C436.065 72.85 437.715 72.15 439.615 72.15H443.815C445.715 72.15 447.315 72.85 448.615 74.25C449.915 75.55 450.565 77.15 450.565 79.05V82.35C450.565 83.65 451.265 84.3 452.665 84.3H467.215C467.715 84.3 468.165 84.1 468.565 83.7C469.065 83.3 469.315 82.85 469.315 82.35V76.8C469.315 76 468.915 75.45 468.115 75.15L446.365 68.25C442.365 66.85 439.065 64.45 436.465 61.05C433.965 57.65 432.715 53.8 432.715 49.5V41.1C432.715 38 433.465 35.2 434.965 32.7C436.565 30.2 438.615 28.2 441.115 26.7C443.615 25.1 446.415 24.3 449.515 24.3H470.365C473.465 24.3 476.265 25.1 478.765 26.7C481.265 28.2 483.265 30.2 484.765 32.7C486.265 35.2 487.015 38 487.015 41.1V47.1C487.015 49 486.365 50.65 485.065 52.05C483.765 53.35 482.165 54 480.265 54H476.065C474.165 54 472.565 53.35 471.265 52.05C469.965 50.65 469.315 49 469.315 47.1V44.25C469.315 43.65 469.065 43.15 468.565 42.75C468.165 42.35 467.715 42.15 467.215 42.15H452.665C451.265 42.15 450.565 42.85 450.565 44.25V49.5C450.565 50.5 450.965 51.1 451.765 51.3L473.515 58.2C477.615 59.5 480.865 61.85 483.265 65.25C485.765 68.65 487.015 72.5 487.015 76.8V85.2Z" fill="black"/>
</svg>
